<svg xmlns="http://www.w3.org/2000/svg" viewBox="0 0 200 200" width="200" height="200">
  <!-- Leaf stem -->
  <path d="M100 180 L100 120" stroke="#38ef7d" stroke-width="3" fill="none" stroke-linecap="round" />
  
  <!-- Main leaf -->
  <path d="M100 120 C130 100, 150 70, 140 40 C110 60, 90 90, 100 120" fill="#11998e" stroke="#38ef7d" stroke-width="2" />
  <path d="M100 120 C70 100, 50 70, 60 40 C90 60, 110 90, 100 120" fill="#11998e" stroke="#38ef7d" stroke-width="2" />
  
  <!-- Small leaves -->
  <path d="M100 150 C115 140, 125 125, 120 110 C105 120, 95 135, 100 150" fill="#38ef7d" stroke="#11998e" stroke-width="1.5" />
  <path d="M100 150 C85 140, 75 125, 80 110 C95 120, 105 135, 100 150" fill="#38ef7d" stroke="#11998e" stroke-width="1.5" />
  
  <!-- Decorative elements -->
  <circle cx="100" cy="40" r="5" fill="#6a11cb" />
  <circle cx="120" cy="60" r="3" fill="#2575fc" />
  <circle cx="80" cy="60" r="3" fill="#2575fc" />
  <circle cx="110" cy="80" r="2" fill="#6a11cb" />
  <circle cx="90" cy="80" r="2" fill="#6a11cb" />
</svg>